<?xml version="1.0" encoding="UTF-8" standalone="no"?>
<!-- Created with Inkscape (http://www.inkscape.org/) -->

<svg
   version="1.1"
   id="svg2"
   width="729.03998"
   height="427.97333"
   viewBox="0 0 729.03998 427.97333"
   sodipodi:docname="3635529.eps"
   xmlns:inkscape="http://www.inkscape.org/namespaces/inkscape"
   xmlns:sodipodi="http://sodipodi.sourceforge.net/DTD/sodipodi-0.dtd"
   xmlns="http://www.w3.org/2000/svg"
   xmlns:svg="http://www.w3.org/2000/svg">
  <defs
     id="defs6" />
  <sodipodi:namedview
     id="namedview4"
     pagecolor="#ffffff"
     bordercolor="#000000"
     borderopacity="0.25"
     inkscape:showpageshadow="2"
     inkscape:pageopacity="0.0"
     inkscape:pagecheckerboard="0"
     inkscape:deskcolor="#d1d1d1" />
  <g
     id="g8"
     inkscape:groupmode="layer"
     inkscape:label="ink_ext_XXXXXX"
     transform="matrix(1.3333333,0,0,-1.3333333,0,427.97333)">
    <g
       id="g10"
       transform="scale(0.1)">
      <path
         d="M 5467.85,559.09 H 0 V 102.609 H 5467.85 V 559.09"
         style="fill:#e9f8fa;fill-opacity:1;fill-rule:nonzero;stroke:none"
         id="path12" />
      <path
         d="M 5467.85,0 H 0 V 102.609 H 5467.85 V 0"
         style="fill:#c89431;fill-opacity:1;fill-rule:nonzero;stroke:none"
         id="path14" />
      <path
         d="M 5013.08,0 H 454.77 V 102.609 H 5013.08 V 0"
         style="fill:#e7b64d;fill-opacity:1;fill-rule:nonzero;stroke:none"
         id="path16" />
      <path
         d="M 3968.33,470.621 C 3884.88,389.16 3776.31,349.23 3668.25,350.5 c 1.35,108.059 43.9,215.621 127.35,297.078 83.46,81.453 192.01,121.391 300.09,120.121 -1.36,-108.078 -43.91,-215.64 -127.36,-297.078"
         style="fill:#7b9d29;fill-opacity:1;fill-rule:nonzero;stroke:none"
         id="path18" />
      <path
         d="m 3368.16,470.621 c 83.46,-81.461 192.01,-121.391 300.09,-120.121 -1.36,108.059 -43.91,215.621 -127.37,297.078 -83.44,81.453 -192.01,121.391 -300.07,120.121 1.34,-108.078 43.9,-215.64 127.35,-297.078"
         style="fill:#7b9d29;fill-opacity:1;fill-rule:nonzero;stroke:none"
         id="path20" />
      <path
         d="m 3511.46,729.148 c 0,-147.867 59.91,-281.738 156.79,-378.679 96.86,96.941 156.78,230.812 156.78,378.679 0,147.872 -59.92,281.752 -156.78,378.692 -96.88,-96.94 -156.79,-230.82 -156.79,-378.692"
         style="fill:#a0c550;fill-opacity:1;fill-rule:nonzero;stroke:none"
         id="path22" />
      <path
         d="M 3429.36,407.051 3504.5,95.1094 h 327.49 l 75.13,311.9416 h -477.76"
         style="fill:#c89431;fill-opacity:1;fill-rule:nonzero;stroke:none"
         id="path24" />
      <path
         d="m 3944.28,333.551 h -547.82 v 89.527 h 547.82 v -89.527"
         style="fill:#e7b64d;fill-opacity:1;fill-rule:nonzero;stroke:none"
         id="path26" />
      <path
         d="m 807.727,102.609 h -68.7 v 953.461 h 68.7 V 102.609"
         style="fill:#9ed1cd;fill-opacity:1;fill-rule:nonzero;stroke:none"
         id="path28" />
      <path
         d="M 825.875,787.551 H 720.879 V 1056.07 H 825.875 V 787.551"
         style="fill:#0d88a6;fill-opacity:1;fill-rule:nonzero;stroke:none"
         id="path30" />
      <path
         d="M 1013.46,102.609 H 533.297 v 134.27 h 480.163 v -134.27"
         style="fill:#0d88a6;fill-opacity:1;fill-rule:nonzero;stroke:none"
         id="path32" />
      <path
         d="M 829.727,2089.26 H 313.848 l 92.836,-981.42 h 522.168 l -99.125,981.42"
         style="fill:#0d88a6;fill-opacity:1;fill-rule:nonzero;stroke:none"
         id="path34" />
      <path
         d="M 929.254,2089.26 H 413.375 l 92.836,-981.42 h 522.169 l -99.126,981.42"
         style="fill:#38bcd7;fill-opacity:1;fill-rule:nonzero;stroke:none"
         id="path36" />
      <path
         d="M 1209.22,1004.32 H 406.684 v 103.52 h 802.536 v -103.52"
         style="fill:#0d88a6;fill-opacity:1;fill-rule:nonzero;stroke:none"
         id="path38" />
      <path
         d="m 1683.13,160.859 h -66.48 V 1468.73 h 66.48 V 160.859"
         style="fill:#9ed1cd;fill-opacity:1;fill-rule:nonzero;stroke:none"
         id="path40" />
      <path
         d="m 1696.61,1231.07 h -93.45 v 237.66 h 93.45 v -237.66"
         style="fill:#ac7723;fill-opacity:1;fill-rule:nonzero;stroke:none"
         id="path42" />
      <path
         d="M 2347.39,102.609 H 2280.9 V 1468.73 h 66.49 V 102.609"
         style="fill:#9ed1cd;fill-opacity:1;fill-rule:nonzero;stroke:none"
         id="path44" />
      <path
         d="m 2360.87,1231.07 h -93.44 v 237.66 h 93.44 v -237.66"
         style="fill:#ac7723;fill-opacity:1;fill-rule:nonzero;stroke:none"
         id="path46" />
      <path
         d="m 1808.46,577.32 -20.24,-103.968 50.94,-100.25 115.05,-3.723 37.43,17.82 -67.2,150.539 -115.98,39.582"
         style="fill:#f9b28d;fill-opacity:1;fill-rule:nonzero;stroke:none"
         id="path48" />
      <path
         d="m 1839.16,373.102 114.14,54.359 c 0,0 9.52,63.219 34.99,80.687 25.46,17.473 70.52,-30.437 70.52,-30.437 0,0 107.52,20.73 160.86,-63.262 l -326.21,-155.359 -54.3,114.012"
         style="fill:#2f2147;fill-opacity:1;fill-rule:nonzero;stroke:none"
         id="path50" />
      <path
         d="m 2234.2,383.949 -326.21,-155.371 -14.53,30.512 326.21,155.359 14.53,-30.5"
         style="fill:#251b37;fill-opacity:1;fill-rule:nonzero;stroke:none"
         id="path52" />
      <path
         d="m 1453.54,460.262 -68.83,-85.543 8.73,-112.028 102.27,-52.839 h 41.45 v 164.867 l -83.62,85.543"
         style="fill:#f9b28d;fill-opacity:1;fill-rule:nonzero;stroke:none"
         id="path54" />
      <path
         d="m 1069.27,1380.35 c 0,0 547.38,-95.84 580.62,-149.28 33.24,-53.45 274.55,-693.332 274.55,-693.332 l -136.22,-64.386 -285.62,551.818 -660.612,272.38 42.68,225.62 184.602,-142.82"
         style="fill:#251b37;fill-opacity:1;fill-rule:nonzero;stroke:none"
         id="path56" />
      <path
         d="m 595.773,1380.35 c 0,0 -17.343,-208.95 76.157,-269.93 93.5,-60.98 648.3,-118.861 648.3,-118.861 l 64.48,-616.84 h 152.45 c 0,0 48.22,715.431 -17.3,798.841 -55.88,71.14 -482.74,150.42 -482.74,150.42 l -38.616,71.14 -402.731,-14.77"
         style="fill:#2f2147;fill-opacity:1;fill-rule:nonzero;stroke:none"
         id="path58" />
      <path
         d="m 962.453,1950.87 36.504,225.75 c 0,0 97.533,-55.29 109.463,-164.74 11.93,-109.45 26.56,-394.75 26.56,-394.75 l -122.28,-12.56 -50.247,346.3"
         style="fill:#f2514f;fill-opacity:1;fill-rule:nonzero;stroke:none"
         id="path60" />
      <path
         d="m 971.051,1582.26 89.089,8.35 c 0,0 26.15,406.36 -10.06,504.94 -36.21,98.57 -114.67,122.71 -114.67,122.71 l -142.832,54.32 c -4.023,-6.04 -155.055,-60.29 -211.308,-165.94 l 114,-396.62 -69,31.97 -30.497,-137.42 v -224.22 h 473.497 v 156.4 l -98.219,45.51"
         style="fill:#d82e3b;fill-opacity:1;fill-rule:nonzero;stroke:none"
         id="path62" />
      <path
         d="m 1108.42,1594.63 47.52,49.94 c 0,0 28.08,0 107.38,0 77.45,0 130.35,-36 144.84,-49.94 24.36,-23.43 17.08,-79.55 17.08,-79.55 h -266.9 l -49.92,79.55"
         style="fill:#f9b28d;fill-opacity:1;fill-rule:nonzero;stroke:none"
         id="path64" />
      <path
         d="m 900.57,2157.61 -53.343,-88.48 c 0,0 -141.911,74.6 -143.731,143.73 -1.816,69.14 144.902,83.69 197.074,61.86 52.18,-21.83 93.399,-71.72 71.571,-157.23 l -71.571,40.12"
         style="fill:#f2514f;fill-opacity:1;fill-rule:nonzero;stroke:none"
         id="path66" />
      <path
         d="m 1056.33,2539.05 c 0,0 45.59,75.52 28.49,165.28 0,0 25.65,17.1 25.65,59.84 0,105.44 -284.958,138.21 -387.54,35.62 -63.442,-63.44 -75.516,-235.09 4.273,-354.77 l 170.25,-76.94 158.877,170.97"
         style="fill:#2f2147;fill-opacity:1;fill-rule:nonzero;stroke:none"
         id="path68" />
      <path
         d="m 824.09,2658.73 c 0,0 149.601,-27.07 233.66,15.68 0,0 22.8,-225.12 -8.55,-303.48 -31.34,-78.37 -142.477,-86.91 -142.477,-86.91 0,0 -5.696,-55.7 5.703,-89.89 l -12.824,-35.62 c 0,0 -105.434,8.55 -136.778,82.64 0,0 12.821,82.76 7.121,158.28 0,0 -56.992,4.27 -64.113,59.83 -7.125,55.57 47.016,75.52 66.961,41.32 h 19.953 v 49.87 c 0,0 34.192,68.39 31.344,108.28"
         style="fill:#f9b28d;fill-opacity:1;fill-rule:nonzero;stroke:none"
         id="path70" />
      <path
         d="m 634.359,2146.2 c 0,0 -67.804,0 -70.316,-120.54 -2.508,-120.54 -4.492,-465.23 60.25,-509.79 100.516,-69.2 534.047,-0.79 534.047,-0.79 l -2.4,129.49 c 0,0 -345.788,24.48 -401.038,14.44 0,0 -5.914,310.64 -15.066,381.78 -13.68,106.26 -81.758,112.94 -105.477,105.41"
         style="fill:#f2514f;fill-opacity:1;fill-rule:nonzero;stroke:none"
         id="path72" />
      <path
         d="m 1393.44,262.691 h 126.42 c 0,0 35.78,52.977 66.28,57.809 30.51,4.809 50.59,-57.809 50.59,-57.809 0,0 105.99,-27.519 118.03,-126.281 h -361.32 v 126.281"
         style="fill:#2f2147;fill-opacity:1;fill-rule:nonzero;stroke:none"
         id="path74" />
      <path
         d="m 1754.76,102.609 h -361.32 v 33.801 h 361.32 v -33.801"
         style="fill:#251b37;fill-opacity:1;fill-rule:nonzero;stroke:none"
         id="path76" />
      <path
         d="m 2288.71,1945.8 h -637.69 l -131.16,-431.73 h 637.7 l 131.15,431.73"
         style="fill:#7b9d29;fill-opacity:1;fill-rule:nonzero;stroke:none"
         id="path78" />
      <path
         d="m 2334.82,1945.8 h -637.7 l -131.15,-431.73 h 637.7 l 131.15,431.73"
         style="fill:#a0c550;fill-opacity:1;fill-rule:nonzero;stroke:none"
         id="path80" />
      <path
         d="m 1069.27,1559.42 h 496.7 v -45.35 h -496.7 v 45.35"
         style="fill:#7b9d29;fill-opacity:1;fill-rule:nonzero;stroke:none"
         id="path82" />
      <path
         d="M 300.371,102.609 H 233.887 V 1468.73 h 66.484 V 102.609"
         style="fill:#9ed1cd;fill-opacity:1;fill-rule:nonzero;stroke:none"
         id="path84" />
      <path
         d="m 313.848,1231.07 h -93.442 v 237.66 h 93.442 v -237.66"
         style="fill:#ac7723;fill-opacity:1;fill-rule:nonzero;stroke:none"
         id="path86" />
      <path
         d="M 964.633,102.609 H 898.148 V 1468.73 h 66.485 V 102.609"
         style="fill:#9ed1cd;fill-opacity:1;fill-rule:nonzero;stroke:none"
         id="path88" />
      <path
         d="m 978.109,1231.07 h -93.441 v 237.66 h 93.441 v -237.66"
         style="fill:#ac7723;fill-opacity:1;fill-rule:nonzero;stroke:none"
         id="path90" />
      <path
         d="M 2477.61,1425.44 H 148.996 v 89.64 H 2477.61 v -89.64"
         style="fill:#c89431;fill-opacity:1;fill-rule:nonzero;stroke:none"
         id="path92" />
      <path
         d="M 2477.61,1425.44 H 1069.27 v 89.64 h 1408.34 v -89.64"
         style="fill:#e7b64d;fill-opacity:1;fill-rule:nonzero;stroke:none"
         id="path94" />
      <path
         d="m 1918.35,1777.22 v 20.21 c 39.69,-0.86 76.88,-16.71 105.04,-44.88 28.17,-28.16 44.03,-65.36 44.88,-105.04 h -20.21 c -0.84,34.29 -14.6,66.41 -38.94,90.76 -24.36,24.35 -56.48,38.1 -90.77,38.95 z m 0,53.13 v 20.2 c 111.15,-1.81 201.25,-91.91 203.05,-203.04 h -20.2 c -1.8,100 -82.84,181.03 -182.85,182.84 z m -3.39,-228.5 c -23.3,0 -42.26,18.96 -42.26,42.27 0,23.31 18.96,42.27 42.26,42.27 23.31,0 42.27,-18.96 42.27,-42.27 0,-23.31 -18.96,-42.27 -42.27,-42.27 z m 77.4,45.66 h 20.2 c -1.74,51.17 -43.05,92.47 -94.21,94.22 v -20.22 c 40.01,-1.73 72.27,-33.99 74.01,-74"
         style="fill:#ffffff;fill-opacity:1;fill-rule:nonzero;stroke:none"
         id="path96" />
      <path
         d="m 5136.37,1456.56 c 114.91,161.7 182.48,359.39 182.48,572.87 0,546.76 -443.23,989.99 -989.99,989.99 -546.75,0 -989.99,-443.23 -989.99,-989.99 0,-213.48 67.57,-411.17 182.49,-572.87 h 1615.01"
         style="fill:#d9f2f7;fill-opacity:1;fill-rule:nonzero;stroke:none"
         id="path98" />
      <path
         d="m 4527.01,2254.89 c 0,0 -96.9,59.5 -104.38,140.5 -9.75,105.74 33.92,133.39 33.92,133.39 0,0 18.85,97.09 100.98,133 104.86,45.86 203.5,23.58 262.48,-35.55 58.96,-59.13 52.07,-85.01 92.28,-164.15 40.21,-79.13 181.92,-200.91 196.99,-377.48 11.86,-138.96 -114.99,-303.52 -114.99,-303.52 l -325.83,112.78 c 0,0 -80.41,216.75 -42.57,290.07 37.85,73.33 -98.88,70.96 -98.88,70.96"
         style="fill:#2f2147;fill-opacity:1;fill-rule:nonzero;stroke:none"
         id="path100" />
      <path
         d="m 4637.7,2041.77 c 0,0 -101.61,-219.67 -94.94,-585.21 l 470.32,-9.19 h 96.2 c 0,0 -49.04,400.01 -123.85,597.16 -8.8,23.21 -65.78,64.29 -129.24,70.26 l -218.49,-73.02"
         style="fill:#c01a5e;fill-opacity:1;fill-rule:nonzero;stroke:none"
         id="path102" />
      <path
         d="m 4695.55,2000.85 c 0,0 -57.86,8.33 -85.99,-41.25 0,0 18.12,132.52 130.32,179.54 71.52,29.97 113.51,9.38 128.25,-42.87 14.75,-52.26 -54.3,-145.52 -54.3,-145.52 0,0 -77.84,100.71 -118.28,50.1"
         style="fill:#ef2c85;fill-opacity:1;fill-rule:nonzero;stroke:none"
         id="path104" />
      <path
         d="m 4503.22,1549.97 -44.43,46.7 c 0,0 -26.26,0 -100.41,0 -72.41,0 -121.87,-33.66 -135.43,-46.7 -22.77,-21.9 -15.96,-74.38 -15.96,-74.38 h 249.56 l 46.67,74.38"
         style="fill:#f9b28d;fill-opacity:1;fill-rule:nonzero;stroke:none"
         id="path106" />
      <path
         d="m 4946.47,2065.69 c 0,0 63.4,0 65.75,-112.71 2.35,-112.7 4.2,-434.99 -56.34,-476.65 -93.98,-64.7 -499.33,-0.74 -499.33,-0.74 l 2.24,121.08 c 0,0 323.32,22.89 374.98,13.5 0,0 5.52,290.45 14.09,356.96 12.78,99.35 76.44,105.61 98.61,98.56"
         style="fill:#ef2c85;fill-opacity:1;fill-rule:nonzero;stroke:none"
         id="path108" />
      <path
         d="m 4855.95,2356.51 c -4.65,46.49 -46.49,27.9 -53.46,11.63 0,0 -30.23,16.27 -25.58,44.16 0.11,0.65 0.14,1.34 0.22,2 -69.59,-8.21 -169.51,73.6 -207.22,107.19 -23.27,-13.25 -44.42,-37.12 -60.32,-76.65 0,0 -24.13,-256.97 47.94,-291.84 72.06,-34.87 117.1,-5.7 117.1,-5.7 0,0 37.19,-51.15 39.52,-62.77 2.32,-11.62 -18.6,-83.68 -18.6,-83.68 0,0 109.26,69.73 125.53,134.82 0,0 -34.87,109.26 -25.57,148.78 0,0 65.09,25.57 60.44,72.06"
         style="fill:#f9b28d;fill-opacity:1;fill-rule:nonzero;stroke:none"
         id="path110" />
      <path
         d="M 5204.8,1419.25 H 3379.06 v 74.63 H 5204.8 v -74.63"
         style="fill:#e7b64d;fill-opacity:1;fill-rule:nonzero;stroke:none"
         id="path112" />
      <path
         d="m 5204.8,1419.25 h -523.86 v 74.63 h 523.86 v -74.63"
         style="fill:#c89431;fill-opacity:1;fill-rule:nonzero;stroke:none"
         id="path114" />
      <path
         d="m 3445.6,1931.24 h 646.02 l 132.86,-437.36 h -646.02 l -132.86,437.36"
         style="fill:#0d88a6;fill-opacity:1;fill-rule:nonzero;stroke:none"
         id="path116" />
      <path
         d="m 3398.89,1931.24 h 646.02 l 132.86,-437.36 h -646.02 l -132.86,437.36"
         style="fill:#38bcd7;fill-opacity:1;fill-rule:nonzero;stroke:none"
         id="path118" />
      <path
         d="m 4680.94,1539.82 h -503.17 v -45.94 h 503.17 v 45.94"
         style="fill:#0d88a6;fill-opacity:1;fill-rule:nonzero;stroke:none"
         id="path120" />
      <path
         d="m 3809.77,1769.8 v 22.67 c -44.55,-0.95 -86.28,-18.75 -117.88,-50.36 -31.61,-31.6 -49.41,-73.34 -50.37,-117.88 h 22.68 c 0.95,38.49 16.38,74.53 43.71,101.86 27.33,27.32 63.37,42.75 101.86,43.71 z m 0,59.61 v 22.68 c -124.74,-2.04 -225.85,-103.13 -227.86,-227.86 h 22.67 c 2.01,112.23 92.95,203.16 205.19,205.18 z m 3.79,-256.41 c 26.16,0 47.43,21.28 47.43,47.44 0,26.15 -21.27,47.43 -47.43,47.43 -26.15,0 -47.43,-21.28 -47.43,-47.43 0,-26.16 21.28,-47.44 47.43,-47.44 z m -86.85,51.23 h -22.68 c 1.97,57.43 48.33,103.78 105.74,105.74 v -22.69 c -44.91,-1.94 -81.1,-38.14 -83.06,-83.05"
         style="fill:#ffffff;fill-opacity:1;fill-rule:nonzero;stroke:none"
         id="path122" />
      <path
         d="m 3812.43,2776.44 c 0,-239.35 -194.04,-433.37 -433.37,-433.37 -239.35,0 -433.38,194.02 -433.38,433.37 0,239.34 194.03,433.37 433.38,433.37 239.33,0 433.37,-194.03 433.37,-433.37"
         style="fill:#d9f2f7;fill-opacity:1;fill-rule:nonzero;stroke:none"
         id="path124" />
      <path
         d="m 3718.03,2776.44 c 0,-187.22 -151.76,-338.98 -338.97,-338.98 -187.22,0 -338.99,151.76 -338.99,338.98 0,187.21 151.77,338.97 338.99,338.97 187.21,0 338.97,-151.76 338.97,-338.97"
         style="fill:#ffffff;fill-opacity:1;fill-rule:nonzero;stroke:none"
         id="path126" />
      <path
         d="m 3657.79,2776.44 c 0,-153.94 -124.8,-278.73 -278.73,-278.73 -153.95,0 -278.74,124.79 -278.74,278.73 0,153.94 124.79,278.73 278.74,278.73 153.93,0 278.73,-124.79 278.73,-278.73"
         style="fill:#38bcd7;fill-opacity:1;fill-rule:nonzero;stroke:none"
         id="path128" />
      <path
         d="m 3100.32,2776.44 c 0,-72.5 27.92,-138.32 73.29,-187.9 75.28,76.38 205.45,187.9 205.45,187.9 l 120.43,139.36 -17.16,119.38 c -31.96,12.77 -66.75,19.99 -103.27,19.99 -153.95,0 -278.74,-124.79 -278.74,-278.73"
         style="fill:#b7e8f3;fill-opacity:1;fill-rule:nonzero;stroke:none"
         id="path130" />
      <path
         d="m 3379.06,3055.17 v -278.73 h 278.73 c 0,153.94 -124.8,278.73 -278.73,278.73"
         style="fill:#85d7df;fill-opacity:1;fill-rule:nonzero;stroke:none"
         id="path132" />
      <path
         d="m 2870.75,2776.44 c 0,-203.12 -164.65,-367.76 -367.76,-367.76 -203.11,0 -367.76,164.64 -367.76,367.76 0,203.11 164.65,367.76 367.76,367.76 203.11,0 367.76,-164.65 367.76,-367.76"
         style="fill:#d9f2f7;fill-opacity:1;fill-rule:nonzero;stroke:none"
         id="path134" />
      <path
         d="m 2768.13,2776.44 c 0,-146.44 -118.71,-265.15 -265.14,-265.15 -146.44,0 -265.15,118.71 -265.15,265.15 0,146.43 118.71,265.14 265.15,265.14 146.43,0 265.14,-118.71 265.14,-265.14"
         style="fill:#ffffff;fill-opacity:1;fill-rule:nonzero;stroke:none"
         id="path136" />
      <path
         d="m 2716.18,2695.4 h -70.46 v 217.7 h 70.46 v -217.7"
         style="fill:#0d88a6;fill-opacity:1;fill-rule:nonzero;stroke:none"
         id="path138" />
      <path
         d="m 2626.89,2695.4 h -70.45 v 276.57 h 70.45 V 2695.4"
         style="fill:#38bcd7;fill-opacity:1;fill-rule:nonzero;stroke:none"
         id="path140" />
      <path
         d="m 2537.61,2695.4 h -70.46 v 160.01 h 70.46 V 2695.4"
         style="fill:#85d7df;fill-opacity:1;fill-rule:nonzero;stroke:none"
         id="path142" />
      <path
         d="m 2448.32,2695.4 h -70.46 v 82.04 h 70.46 v -82.04"
         style="fill:#85d7df;fill-opacity:1;fill-rule:nonzero;stroke:none"
         id="path144" />
      <path
         d="m 2359.03,2695.4 h -70.46 v 49.98 h 70.46 v -49.98"
         style="fill:#b7e8f3;fill-opacity:1;fill-rule:nonzero;stroke:none"
         id="path146" />
      <path
         d="m 2716.18,2662.9 h -427.61 v 18.5 h 427.61 v -18.5"
         style="fill:#b7e8f3;fill-opacity:1;fill-rule:nonzero;stroke:none"
         id="path148" />
      <path
         d="m 2160.9,2336.33 c 0,-149.64 -121.32,-270.96 -270.97,-270.96 -149.65,0 -270.97,121.32 -270.97,270.96 0,149.66 121.32,270.97 270.97,270.97 149.65,0 270.97,-121.31 270.97,-270.97"
         style="fill:#d9f2f7;fill-opacity:1;fill-rule:nonzero;stroke:none"
         id="path150" />
      <path
         d="m 2078.61,2336.33 c 0,-104.2 -84.47,-188.68 -188.68,-188.68 -104.21,0 -188.68,84.48 -188.68,188.68 0,104.21 84.47,188.69 188.68,188.69 104.21,0 188.68,-84.48 188.68,-188.69"
         style="fill:#ffffff;fill-opacity:1;fill-rule:nonzero;stroke:none"
         id="path152" />
      <path
         d="m 2017.7,2254.14 h -255.54 v 164.39 h 255.54 v -164.39"
         style="fill:#38bcd7;fill-opacity:1;fill-rule:nonzero;stroke:none"
         id="path154" />
      <path
         d="m 1762.16,2418.53 127.77,-82.2 127.77,82.2 h -255.54"
         style="fill:#85d7df;fill-opacity:1;fill-rule:nonzero;stroke:none"
         id="path156" />
    </g>
  </g>
</svg>
