<?xml version="1.0" encoding="UTF-8"?>
<svg version="1.1" xmlns="http://www.w3.org/2000/svg" width="512" height="512">
<path d="M0 0 C0.99839236 -0.00750224 1.99678472 -0.01500447 3.02543139 -0.02273405 C6.37477709 -0.04408571 9.72377242 -0.04395046 13.07318115 -0.04379272 C15.47308396 -0.05440498 17.87298164 -0.06623485 20.27287292 -0.07919312 C26.79571077 -0.1099997 33.31846252 -0.12112465 39.84135532 -0.12683535 C43.91647198 -0.13058904 47.99156758 -0.13939924 52.06667328 -0.14933395 C63.3559737 -0.17627046 74.64525379 -0.198782 85.93458939 -0.20121193 C86.65671448 -0.2013675 87.37883957 -0.20152308 88.12284724 -0.20168336 C89.58668534 -0.20197441 91.05052343 -0.20225979 92.51436153 -0.20253952 C93.24098392 -0.20268237 93.96760631 -0.20282523 94.71624756 -0.20297241 C95.44375988 -0.20311208 96.17127219 -0.20325175 96.92083034 -0.20339565 C108.7063064 -0.2065302 120.49141475 -0.24311312 132.27676943 -0.29460867 C144.38507572 -0.34709233 156.49320056 -0.37332451 168.6016233 -0.37276304 C175.39672385 -0.37301543 182.19140186 -0.38420159 188.98639679 -0.42393875 C195.37896075 -0.45978312 201.7706728 -0.46209464 208.16328621 -0.43876648 C210.50741059 -0.43590479 212.85158499 -0.44497321 215.19560814 -0.46694565 C218.40086008 -0.49512398 221.60314214 -0.4799366 224.80834961 -0.45410156 C226.19383385 -0.48161686 226.19383385 -0.48161686 227.60730767 -0.50968802 C234.96936106 -0.37582617 238.87595945 2.46761779 244.15814209 7.40786743 C244.95789784 8.13115435 244.95789784 8.13115435 245.77381027 8.86905313 C247.20039851 10.19329773 248.58008985 11.56747791 249.95899963 12.94129944 C250.47431124 13.45207993 250.98962284 13.96286042 251.52054995 14.48911911 C253.21540352 16.17149227 254.90321158 17.8607463 256.59100342 19.55020142 C257.81695835 20.77016123 259.04331868 21.98971377 260.27005005 23.20889282 C263.57824466 26.49952982 266.88003106 29.79652307 270.18009782 33.09530902 C272.24529364 35.15907795 274.31190929 37.22141405 276.37903404 39.28325081 C283.59878471 46.48454183 290.81339476 53.69093665 298.02313232 60.9022522 C304.73226745 67.61259069 311.45249964 74.3116718 318.17798597 81.00561851 C323.96538019 86.76684185 329.7450172 92.53576998 335.51870173 98.31073242 C338.96145572 101.75399538 342.40721728 105.19410778 345.86081886 108.62649345 C349.10618593 111.85246224 352.34176289 115.08794183 355.57017136 118.33087921 C356.7534589 119.51625326 357.94014339 120.69824795 359.13051796 121.8765049 C373.53061823 136.1395062 373.53061823 136.1395062 373.71928406 147.81282043 C373.71425369 148.72848282 373.70922333 149.6441452 373.70404053 150.58755493 C373.7143782 151.57383377 373.72471588 152.56011261 373.73536682 153.57627869 C373.76468826 156.81197703 373.76629177 160.04704694 373.76751709 163.28286743 C373.78250588 165.53589056 373.79923449 167.78890272 373.81762695 170.04190063 C373.86123379 175.95358803 373.88128495 181.8651272 373.8963623 187.77694702 C373.91595729 193.81676981 373.95792469 199.8564331 373.99798584 205.89614868 C374.0732159 217.73333899 374.12355112 229.57049347 374.15814209 241.40786743 C374.99819794 241.56802338 374.99819794 241.56802338 375.85522461 241.73141479 C378.44161918 242.22764824 381.02641744 242.73177595 383.61126709 243.23599243 C384.49185791 243.40373169 385.37244873 243.57147095 386.27972412 243.74429321 C420.22298927 250.40780978 450.46024156 271.12994246 470.15814209 299.40786743 C476.91480337 309.51788753 482.14398887 319.93524024 486.15814209 331.40786743 C486.5358374 332.47263306 486.91353271 333.53739868 487.30267334 334.63442993 C488.37473354 337.87068656 489.29807659 341.10903843 490.15814209 344.40786743 C490.45849365 345.55126587 490.75884521 346.69466431 491.06829834 347.87271118 C495.60516911 368.65790984 495.16022915 392.9943765 489.15814209 413.40786743 C488.83668213 414.50542358 488.83668213 414.50542358 488.50872803 415.62515259 C478.77079427 447.68095636 458.10865658 474.18540086 430.15814209 492.40786743 C429.37310303 492.94025024 428.58806396 493.47263306 427.77923584 494.02114868 C410.60490023 505.1023287 387.92650379 512.51052666 367.43954468 512.54208851 C366.7860837 512.54444074 366.13262271 512.54679297 365.45935988 512.54921648 C363.27251126 512.55586668 361.0857226 512.55544947 358.89886475 512.55503845 C357.31403832 512.55833951 355.72921273 512.56206559 354.1443882 512.56617993 C349.79132235 512.57617964 345.43827029 512.57991342 341.08519459 512.58256924 C336.38983896 512.58647805 331.69449419 512.59605564 326.99914551 512.6047821 C315.66448384 512.62452505 304.32982131 512.63460769 292.99514675 512.64350989 C287.65830362 512.64789432 282.32146149 512.65326054 276.98461914 512.65849876 C259.24777431 512.67550505 241.5109301 512.69000135 223.77407837 512.69724751 C219.17358398 512.69915739 214.57308959 512.70107773 209.97259521 512.70303345 C208.82916601 512.70351719 207.68573681 512.70400093 206.50765824 512.70449933 C187.96606439 512.71280779 169.42453487 512.73816113 150.88296914 512.77061412 C131.85108007 512.80365428 112.81922375 512.8216933 93.78730583 512.82489175 C83.09961834 512.82705912 72.41202481 512.83584158 61.72436523 512.86135292 C52.62716929 512.88301792 43.53009016 512.8911309 34.43287134 512.88138614 C29.79008408 512.8768299 25.14753807 512.87880446 20.50478363 512.89814758 C16.25599982 512.91569694 12.00763474 512.91484895 7.758847 512.89925029 C6.2205667 512.89686172 4.68225803 512.90126216 3.14402127 512.91307894 C1.05441654 512.92813921 -1.03369311 512.91856863 -3.1232605 512.90285206 C-4.86471564 512.90431727 -4.86471564 512.90431727 -6.6413517 512.90581208 C-11.55569323 512.14122363 -14.54625641 509.96884072 -17.69308811 506.1774587 C-19.23049004 502.47090672 -19.25636163 499.04045608 -19.22217464 495.09440708 C-19.22916452 493.83736472 -19.22916452 493.83736472 -19.23629561 492.55492756 C-19.24828956 489.734067 -19.23883323 486.91368418 -19.22953796 484.09281921 C-19.23370895 482.05512572 -19.23918517 480.01743455 -19.24585778 477.97974771 C-19.2603619 472.37020466 -19.25605216 466.76080791 -19.24869096 461.15125668 C-19.24397387 455.1054877 -19.25645617 449.05975104 -19.26670837 443.01399231 C-19.28293421 431.85131023 -19.28533575 420.68867368 -19.28040338 409.52598605 C-19.27584894 399.21371836 -19.27644197 388.9014681 -19.28224373 378.58920097 C-19.28300059 377.20675788 -19.28375657 375.82431478 -19.28451167 374.44187168 C-19.28565685 372.35874049 -19.28680672 370.27560931 -19.28797092 368.19247813 C-19.29867843 348.82141007 -19.30339857 329.45034783 -19.29550076 310.07927799 C-19.29520358 309.34882641 -19.29490641 308.61837484 -19.29460023 307.86578836 C-19.29215121 301.93373189 -19.28953967 296.00167548 -19.2869161 290.06961908 C-19.27681277 266.92819058 -19.28516967 243.78683464 -19.30841064 220.64541626 C-19.33447151 194.65404299 -19.34733434 168.6627134 -19.3402229 142.67132658 C-19.33950682 139.90100094 -19.33883243 137.1306753 -19.33818245 134.36034966 C-19.33801264 133.67821036 -19.33784283 132.99607106 -19.33766788 132.29326087 C-19.33536305 121.98755984 -19.3433506 111.6818993 -19.35647392 101.37620735 C-19.37136846 89.65859085 -19.37187543 77.94105311 -19.35440301 66.22343285 C-19.34586299 60.2419791 -19.34381655 54.26070703 -19.35905457 48.27926254 C-19.37282232 42.80732802 -19.36824089 37.33573216 -19.34881533 31.86381762 C-19.3450306 29.88069815 -19.34804778 27.89755206 -19.35842698 25.91445614 C-19.37150619 23.2249482 -19.36009495 20.53662493 -19.34242916 17.84716892 C-19.35207967 17.07181359 -19.36173019 16.29645827 -19.37167314 15.49760732 C-19.30157098 10.32276447 -18.08908332 7.40581671 -14.84185791 3.40786743 C-10.38357019 -0.45446913 -5.608782 -0.02383868 0 0 Z M11.15814209 30.40786743 C11.15814209 179.56786743 11.15814209 328.72786743 11.15814209 482.40786743 C96.95814209 482.40786743 182.75814209 482.40786743 271.15814209 482.40786743 C267.00706539 477.36009246 267.00706539 477.36009246 262.40814209 473.22036743 C239.79117651 453.78590169 227.32816203 422.22191345 223.15814209 393.40786743 C222.91272233 388.3072268 222.91240864 383.20134688 222.90814209 378.09536743 C222.90746735 377.37478149 222.9067926 376.65419556 222.90609741 375.91177368 C222.95441698 343.48437657 233.61283216 312.92364766 255.15814209 288.40786743 C255.8658374 287.56739868 256.57353271 286.72692993 257.30267334 285.86099243 C278.57788005 261.17408591 307.96695095 248.38270127 339.44671631 242.80923462 C341.1804523 242.56121608 341.1804523 242.56121608 342.15814209 241.40786743 C342.25320261 238.85196855 342.2837097 236.32318772 342.27166748 233.76699829 C342.27188652 232.56709007 342.27188652 232.56709007 342.27210999 231.34294128 C342.27141064 228.68617078 342.26361727 226.02946951 342.25579834 223.37271118 C342.25393424 221.53568052 342.2525103 219.69864937 342.25151062 217.86161804 C342.24768484 213.01677081 342.23785405 208.17195335 342.22680664 203.32711792 C342.21659381 198.38724165 342.21201328 193.44736058 342.20697021 188.50747681 C342.19623183 178.8075939 342.17915469 169.10773314 342.15814209 159.40786743 C341.56068617 159.40547908 340.96323025 159.40309072 340.3476696 159.40063 C325.79976825 159.34145379 311.25201563 159.26588694 296.70429802 159.17215252 C289.66907119 159.12721675 282.63389473 159.08779705 275.59857178 159.06143188 C268.80982352 159.0359752 262.02130883 158.99505554 255.23270035 158.94468117 C252.64197706 158.92798892 250.05121496 158.91648937 247.4604454 158.91025352 C243.83323375 158.90063846 240.20659884 158.87260861 236.57952881 158.84024048 C235.50706406 158.84167557 234.4345993 158.84311066 233.32963562 158.84458923 C227.88375925 158.77580619 223.81132018 158.5716301 219.15814209 155.40786743 C215.02658301 150.27133452 214.04972308 145.93128947 213.99992371 139.47871399 C213.99014968 138.51462207 213.98037565 137.55053015 213.97030544 136.55722332 C213.96453519 135.50722054 213.95876493 134.45721777 213.95281982 133.37539673 C213.93777074 131.67950897 213.93777074 131.67950897 213.92241764 129.94936085 C213.89106279 126.29362339 213.86627378 122.63787508 213.84173584 118.98208618 C213.82332963 116.723497 213.8044928 114.46491128 213.78521729 112.20632935 C213.71680464 103.83604975 213.65672943 95.46570369 213.59564209 87.09536743 C213.45126709 68.38849243 213.30689209 49.68161743 213.15814209 30.40786743 C146.49814209 30.40786743 79.83814209 30.40786743 11.15814209 30.40786743 Z M244.15814209 53.40786743 C244.15814209 78.15786743 244.15814209 102.90786743 244.15814209 128.40786743 C268.90814209 128.40786743 293.65814209 128.40786743 319.15814209 128.40786743 C314.62446664 123.05412893 314.62446664 123.05412893 309.86180115 117.98454285 C309.28283585 117.40275772 308.70387054 116.8209726 308.10736084 116.22155762 C307.49465332 115.61087433 306.8819458 115.00019104 306.25067139 114.3710022 C305.58815872 113.70673721 304.92564606 113.04247223 304.24305725 112.358078 C302.07531602 110.18597196 299.9039815 108.01750064 297.73236084 105.84927368 C296.2186089 104.33484764 294.7050054 102.82027322 293.19154358 101.30555725 C290.03188535 98.14442976 286.87043768 94.98510591 283.70770264 91.82705688 C279.64423676 87.76931722 275.5853159 83.70706538 271.52769756 79.64347935 C268.40954069 76.521721 265.28902101 73.40233334 262.16776466 70.28367424 C260.66902982 68.7856083 259.17104247 67.28679417 257.67380333 65.78723335 C255.59115073 63.70205787 253.50534875 61.62008633 251.41864014 59.53897095 C250.79581146 58.91411804 250.17298279 58.28926514 249.53128052 57.64547729 C247.21433285 54.76303102 247.21433285 54.76303102 244.15814209 53.40786743 Z M326.15814209 276.40786743 C325.50990479 276.61685669 324.86166748 276.82584595 324.19378662 277.04116821 C297.3995306 286.05359749 276.2414988 305.33062407 263.16595459 330.18521118 C251.39124338 353.97550544 249.0049694 383.12366064 257.15814209 408.40786743 C257.36713135 409.05610474 257.57612061 409.70434204 257.79144287 410.3722229 C266.80387214 437.16647892 286.08089873 458.32451073 310.93548584 471.40005493 C334.7257801 483.17476615 363.8739353 485.56104012 389.15814209 477.40786743 C390.13049805 477.09438354 390.13049805 477.09438354 391.12249756 476.77456665 C417.91675358 467.76213738 439.07478538 448.48511079 452.15032959 423.63052368 C463.9250408 399.84022943 466.31131478 370.69207422 458.15814209 345.40786743 C457.94915283 344.75963013 457.74016357 344.11139282 457.52484131 343.44351196 C448.51241203 316.64925594 429.23538545 295.49122414 404.38079834 282.41567993 C380.59050408 270.64096872 351.44234888 268.25469475 326.15814209 276.40786743 Z " fill="#000000" transform="translate(18.84185791015625,-0.407867431640625)"/>
<path d="M0 0 C3.58440288 2.52217191 5.80810132 5.26208008 7.1875 9.4375 C7.66918163 14.42203477 7.56563437 19.3759464 7.4375 24.375 C7.41740673 25.74020821 7.39916094 27.10544493 7.3828125 28.47070312 C7.33584433 31.79370134 7.27016726 35.11522992 7.1875 38.4375 C8.02410156 38.41131592 8.86070312 38.38513184 9.72265625 38.3581543 C12.86109928 38.27235107 15.99893974 38.20997193 19.13818359 38.1628418 C21.15112253 38.12567173 23.16351837 38.0621003 25.17578125 37.99804688 C32.71227598 37.90336729 38.52879087 38.04477358 44.1875 43.4375 C47.58149399 48.10424174 48.04508688 52.84369468 47.1875 58.4375 C45.64428759 63.12225194 42.97258488 66.25598925 38.59741211 68.64135742 C33.05605081 70.47201077 27.01946218 69.83538127 21.25 69.6875 C19.88479179 69.66740673 18.51955507 69.64916094 17.15429688 69.6328125 C13.83129866 69.58584433 10.50977008 69.52016726 7.1875 69.4375 C7.21368408 70.27410156 7.23986816 71.11070312 7.2668457 71.97265625 C7.35264893 75.11109928 7.41502807 78.24893974 7.4621582 81.38818359 C7.49932827 83.40112253 7.5628997 85.41351837 7.62695312 87.42578125 C7.72163271 94.96227598 7.58022642 100.77879087 2.1875 106.4375 C-2.47924174 109.83149399 -7.21869468 110.29508688 -12.8125 109.4375 C-17.49725194 107.89428759 -20.63098925 105.22258488 -23.01635742 100.84741211 C-24.84701077 95.30605081 -24.21038127 89.26946218 -24.0625 83.5 C-24.04240673 82.13479179 -24.02416094 80.76955507 -24.0078125 79.40429688 C-23.96084433 76.08129866 -23.89516726 72.75977008 -23.8125 69.4375 C-25.06740234 69.47677612 -25.06740234 69.47677612 -26.34765625 69.5168457 C-29.48609928 69.60264893 -32.62393974 69.66502807 -35.76318359 69.7121582 C-37.77612253 69.74932827 -39.78851837 69.8128997 -41.80078125 69.87695312 C-49.33727598 69.97163271 -55.15379087 69.83022642 -60.8125 64.4375 C-64.20649399 59.77075826 -64.67008688 55.03130532 -63.8125 49.4375 C-62.26928759 44.75274806 -59.59758488 41.61901075 -55.22241211 39.23364258 C-49.68105081 37.40298923 -43.64446218 38.03961873 -37.875 38.1875 C-36.50979179 38.20759327 -35.14455507 38.22583906 -33.77929688 38.2421875 C-30.45629866 38.28915567 -27.13477008 38.35483274 -23.8125 38.4375 C-23.83868408 37.60089844 -23.86486816 36.76429688 -23.8918457 35.90234375 C-23.97764893 32.76390072 -24.04002807 29.62606026 -24.0871582 26.48681641 C-24.12432827 24.47387747 -24.1878997 22.46148163 -24.25195312 20.44921875 C-24.34663271 12.91272402 -24.20522642 7.09620913 -18.8125 1.4375 C-13.22061197 -2.62932766 -6.19762857 -3.08551466 0 0 Z " fill="#000000" transform="translate(384.8125,322.5625)"/>
</svg>
