<?xml version="1.0" encoding="UTF-8"?>
<svg version="1.1" xmlns="http://www.w3.org/2000/svg" width="512" height="512">
<path d="M0 0 C1.52657227 -0.01723618 1.52657227 -0.01723618 3.08398438 -0.03482056 C4.20501556 -0.0422226 5.32604675 -0.04962463 6.48104858 -0.05725098 C7.6584259 -0.06864105 8.83580322 -0.08003113 10.04885864 -0.09176636 C13.96030715 -0.12689237 17.87175974 -0.15355184 21.78329468 -0.1763916 C22.78217311 -0.1823104 22.78217311 -0.1823104 23.80123091 -0.18834877 C30.0847839 -0.22477788 36.36834818 -0.25621558 42.65197182 -0.27745819 C50.68180537 -0.30500667 58.71075308 -0.35571378 66.7402178 -0.43793249 C72.38958433 -0.49381329 78.03871126 -0.52270719 83.68834436 -0.5319314 C87.06038315 -0.53817667 90.43138369 -0.5561834 93.80311966 -0.60331726 C97.57147519 -0.64947647 101.33747336 -0.6515273 105.10604858 -0.64318848 C106.76937729 -0.67858231 106.76937729 -0.67858231 108.46630859 -0.71469116 C109.50094238 -0.70362335 110.53557617 -0.69255554 111.6015625 -0.68115234 C112.49126047 -0.68630608 113.38095844 -0.69145981 114.29761696 -0.69676971 C121.04440141 1.32467731 125.6020132 7.38879818 129.60802281 12.90612817 C139.29134607 26.19236393 150.85462757 39.51600255 167.65547329 42.65446293 C182.05800592 44.58698551 196.65840924 44.15640697 211.1485558 43.68236985 C218.21375805 43.45831902 225.27623998 43.43175637 232.34447698 43.41381784 C244.94753036 43.37711691 257.54399432 43.19678181 270.14389038 42.91931152 C282.34221934 42.65104429 294.53884555 42.44526768 306.73959351 42.32653809 C307.87298686 42.31546945 307.87298686 42.31546945 309.02927705 42.30417721 C314.32290983 42.25318306 319.61657398 42.20604923 324.9102478 42.1595459 C330.77820843 42.10748217 336.64615382 42.05397098 342.51408386 41.99856567 C343.22580357 41.99193738 343.93752328 41.98530909 344.67081026 41.97847994 C354.49602663 41.8855888 364.31933856 41.74280846 374.14325325 41.55866572 C378.68259824 41.47510256 383.22212054 41.40134897 387.76159668 41.32531548 C390.18288717 41.28135439 392.6040845 41.23186761 395.02514076 41.17648888 C398.32518694 41.10103326 401.62508477 41.04393419 404.92555237 40.99069214 C405.88553908 40.96333461 406.84552579 40.93597708 407.83460301 40.90779054 C413.06000184 40.84359745 416.6809268 41.18395347 421.18173218 44.1673584 C425.30917172 49.56098024 424.56360054 55.86873637 424.47470093 62.3470459 C424.47045609 63.51494659 424.46621124 64.68284729 424.46183777 65.88613892 C424.44508618 69.60511626 424.40743916 73.32354567 424.36923218 77.0423584 C424.35418085 79.56839222 424.34049323 82.09443457 424.32821655 84.6204834 C424.29519409 90.80296105 424.24502909 96.98512057 424.18173218 103.1673584 C426.08849731 103.14379272 426.08849731 103.14379272 428.03378296 103.11975098 C432.76369862 103.0653259 437.49358674 103.03096248 442.22372437 103.00256348 C444.26836812 102.98750552 446.31297973 102.96705483 448.35751343 102.94104004 C451.3016047 102.90452529 454.24526775 102.88760189 457.18954468 102.87438965 C458.09914948 102.85890579 459.00875427 102.84342194 459.94592285 102.82746887 C465.0788165 102.82611715 468.81751138 103.14495866 473.18173218 106.1673584 C477.829369 113.76250494 474.47284813 123.78404414 472.69735718 131.86657715 C472.31205841 133.657304 472.31205841 133.657304 471.91897583 135.48420715 C471.37554347 137.99558465 470.82729764 140.50592488 470.27450562 143.01525879 C469.43286225 146.84970988 468.61508291 150.68874164 467.79891968 154.52868652 C467.26650279 156.97496332 466.73269585 159.42093809 466.19735718 161.86657715 C465.95551697 163.01043381 465.71367676 164.15429047 465.46450806 165.33280945 C462.69556938 177.69930608 462.69556938 177.69930608 457.21298218 181.5501709 C453.45201251 182.69292707 449.9464392 182.09469432 446.18173218 181.1673584 C443.68173218 179.6673584 443.68173218 179.6673584 442.18173218 177.1673584 C440.67411849 170.61058234 441.49656035 164.84573695 443.01766968 158.39001465 C443.21647736 157.49745468 443.41528503 156.60489471 443.62011719 155.68528748 C444.2523364 152.86361007 444.90449619 150.0469679 445.55673218 147.2298584 C445.98767252 145.31282189 446.41737191 143.39550598 446.84579468 141.47790527 C449.9795892 127.57164436 449.9795892 127.57164436 451.18173218 125.1673584 C322.15173218 125.4973584 193.12173218 125.8273584 60.18173218 126.1673584 C50.61173218 169.3973584 41.04173218 212.6273584 31.18173218 257.1673584 C18.68173218 313.20902507 18.68173218 313.20902507 13.57919312 335.98937988 C11.07385623 348.02574662 9.73341706 358.18134005 16.18173218 369.1673584 C21.02771457 376.15127421 27.4156632 379.74650077 35.66110623 381.74310255 C40.97075392 382.63678893 46.35581118 382.44024392 51.72517395 382.42132568 C53.09922436 382.42363248 54.47327353 382.42681046 55.84732014 382.43078017 C59.60862772 382.43910691 63.36983343 382.43501256 67.1311413 382.42880774 C71.19324907 382.42427551 75.25533954 382.43127086 79.31744385 382.43676758 C87.26968197 382.44565523 95.22188231 382.44374229 103.17412191 382.4379423 C109.63838832 382.43342303 116.10264416 382.43281405 122.5669117 382.43498993 C123.48742456 382.4352964 124.40793743 382.43560286 125.35634463 382.43591861 C127.22644178 382.43655808 129.09653893 382.4372065 130.96663607 382.4378638 C148.49801596 382.44356533 166.02937493 382.43701213 183.56075139 382.42626306 C198.59693841 382.4173292 213.63309454 382.41887858 228.66928101 382.42810059 C246.13696729 382.43880889 263.60463523 382.44301446 281.07232434 382.43687606 C282.93579519 382.43623897 284.79926604 382.43561023 286.66273689 382.43498993 C287.5795593 382.43468138 288.49638171 382.43437283 289.44098661 382.43405493 C295.89547605 382.43232956 302.34995383 382.43523971 308.80444145 382.43994904 C316.6732644 382.44556415 324.54204745 382.4440282 332.41086584 382.43338755 C336.42411179 382.42813911 340.43729129 382.42605995 344.45053673 382.43268585 C348.12752524 382.43866466 351.80438596 382.43533845 355.48136295 382.42473075 C357.43479211 382.42145403 359.38823021 382.42795045 361.34164995 382.43484521 C372.29733848 382.38613127 381.30989866 381.03927012 390.18173218 374.1673584 C393.33949079 370.78587195 395.71490856 367.56782925 397.18173218 363.1673584 C396.44052124 363.20216309 395.6993103 363.23696777 394.93563843 363.27282715 C369.92031224 363.91581595 345.96079192 355.16353628 327.75448608 337.8848877 C310.27081657 320.57220098 299.24497471 298.30706853 298.94003296 273.46203613 C298.9135481 262.94988578 298.9747838 253.26195727 302.18173218 243.1673584 C302.37509155 242.54103516 302.56845093 241.91471191 302.76766968 241.26940918 C307.48931726 226.31388192 315.25738943 214.43753695 326.18173218 203.1673584 C326.98804077 202.25083496 326.98804077 202.25083496 327.81063843 201.3157959 C341.19670395 186.62131796 364.10804674 177.15861134 383.59970093 176.02697754 C412.37707731 174.96945115 435.82437085 182.16703344 457.49423218 201.5423584 C475.58006498 218.39446966 485.07998279 241.97789918 486.34970093 266.39782715 C486.51160812 290.91057633 478.91230341 314.87949287 461.68612671 332.71838379 C460.19693782 334.21438657 458.69063667 335.69128963 457.18173218 337.1673584 C456.38122437 337.98849121 455.58071655 338.80962402 454.75595093 339.65563965 C445.68686653 348.48084951 433.63897374 355.56211798 421.18173218 358.1673584 C421.09923218 359.4461084 421.01673218 360.7248584 420.93173218 362.0423584 C419.40836096 375.04179277 411.59577266 386.07510024 401.73641968 394.38220215 C389.93687333 402.62745089 378.21256243 404.46788683 364.21636963 404.43478394 C362.79638431 404.43852417 361.37640104 404.44312717 359.95642102 404.44851458 C356.06795766 404.46071421 352.17958053 404.4604877 348.29110241 404.45812583 C344.09187694 404.45771689 339.89267883 404.4687643 335.69346619 404.47824097 C327.47084914 404.49483595 319.24826077 404.50034986 311.02562837 404.50146572 C304.3387685 404.50241704 297.65191807 404.50653151 290.96506119 404.51286697 C271.99179357 404.53047634 253.01854855 404.53970648 234.04527269 404.53820603 C232.51180451 404.53808616 232.51180451 404.53808616 230.94735718 404.53796387 C229.41200857 404.53784123 229.41200857 404.53784123 227.84564282 404.53771611 C211.26569664 404.5369036 194.68584138 404.55603325 178.10592149 404.5842406 C161.06726717 404.61299877 144.02865715 404.62677924 126.98997796 404.62505305 C117.42995432 404.62439009 107.87002598 404.62984069 98.31002426 404.65140915 C90.1686632 404.6696597 82.02744062 404.67393665 73.88606791 404.6603903 C69.73643494 404.65387977 65.58706734 404.65367364 61.43745995 404.6710968 C57.62994824 404.68691834 53.82291028 404.68387249 50.01540948 404.66652854 C48.00402473 404.66204647 45.99262473 404.67704446 43.98129833 404.69300783 C31.183377 404.59689544 19.6358514 401.7155249 9.18173218 394.1673584 C8.48563843 393.66591309 7.78954468 393.16446777 7.07235718 392.64782715 C-2.88086584 384.71996928 -9.59913041 372.86372915 -11.1857664 360.24447012 C-11.78977423 352.01137652 -11.95340425 343.83165138 -11.92747498 335.578125 C-11.92664261 334.1515376 -11.92624597 332.7249499 -11.92624205 331.29836226 C-11.92492193 327.41523007 -11.91726303 323.53213348 -11.90842664 319.64901209 C-11.89995279 315.44733707 -11.89734033 311.24565737 -11.89382935 307.04397583 C-11.88403351 296.9254338 -11.86439452 286.80692012 -11.84356859 276.68839574 C-11.83396184 271.9182772 -11.82540043 267.14815679 -11.81671715 262.3780365 C-11.78745148 246.51955456 -11.75570338 230.66108068 -11.71649647 214.80261993 C-11.70637721 210.69796248 -11.69626547 206.59330501 -11.68618774 202.48864746 C-11.68368087 201.46853905 -11.68117399 200.44843064 -11.67859115 199.39740986 C-11.63835313 182.83437908 -11.61523411 166.27137053 -11.59920911 149.70830041 C-11.58247579 132.69096303 -11.55081042 115.6737057 -11.50432509 98.65642309 C-11.47860458 89.10628529 -11.45944936 79.55623241 -11.45694923 70.00605774 C-11.45477169 61.88355515 -11.43910111 53.76122196 -11.40561674 45.63878554 C-11.38894598 41.49430844 -11.37878805 37.35008053 -11.38592339 33.20557022 C-11.39230022 29.41349003 -11.3803689 25.62192928 -11.35371848 21.82994145 C-11.34427954 19.8052156 -11.3545302 17.7804277 -11.36542827 15.75570917 C-11.35336398 14.55548294 -11.34129969 13.3552567 -11.32886982 12.11865997 C-11.32680887 11.08261517 -11.32474791 10.04657037 -11.3226245 8.97913027 C-10.68635298 5.43193752 -9.28317663 3.74703586 -6.81826782 1.1673584 C-4.36589101 -0.05883001 -2.7430805 0.02525343 0 0 Z M10.18173218 21.1673584 C10.18173218 95.4173584 10.18173218 169.6673584 10.18173218 246.1673584 C11.87491037 242.78100202 12.71407225 240.37022115 13.50300598 236.74671936 C13.7454303 235.64619232 13.98785461 234.54566528 14.23762512 233.41178894 C14.49689285 232.20907852 14.75616058 231.0063681 15.02328491 229.76721191 C15.4505171 227.81734382 15.87775099 225.8674761 16.30504906 223.91762245 C16.76272916 221.8243717 17.2177963 219.73056759 17.67217827 217.63659859 C18.62023789 213.26903883 19.5772234 208.90346528 20.53575134 204.53819275 C23.08771367 192.90970605 25.6284931 181.2787826 28.16266352 169.64640611 C29.82800414 162.00226541 31.49850326 154.35929371 33.17885166 146.71843666 C34.1322662 142.38109848 35.07740567 138.04206592 36.01638973 133.70158207 C36.74060918 130.36508903 37.47662132 127.03121805 38.21078491 123.69689941 C38.46802841 122.49621323 38.72527191 121.29552704 38.99031067 120.05845642 C39.23555481 118.95510956 39.48079895 117.8517627 39.73347473 116.71498108 C39.94196769 115.75874627 40.15046064 114.80251146 40.36527157 113.81729984 C41.47187522 110.22565702 42.6754922 107.14921432 45.90915364 105.04132336 C48.78722648 103.9345036 51.11734645 103.9121909 54.20247269 103.90564537 C56.06410203 103.89444713 56.06410203 103.89444713 57.96334004 103.88302267 C59.34288001 103.88479951 60.72241975 103.88676041 62.10195923 103.8888855 C63.56559393 103.88388395 65.02922586 103.87800857 66.49285388 103.87133276 C70.51998771 103.85550164 74.54705184 103.85210038 78.57421303 103.85068417 C82.9150352 103.84699554 87.25581889 103.83184277 91.59661865 103.81806946 C99.11907805 103.79577588 106.64152379 103.78077522 114.16400909 103.77070236 C125.04030805 103.75612813 135.91655946 103.73059485 146.79283056 103.70237108 C164.43807685 103.65688022 182.08332998 103.6202749 199.72860718 103.5892334 C216.87119752 103.55905724 234.01377113 103.52471127 251.15634155 103.48474121 C252.21268709 103.48227966 253.26903263 103.47981811 254.35738865 103.47728197 C259.65666749 103.46490755 264.95594615 103.45245098 270.2552247 103.43995357 C314.23070451 103.33635144 358.20620425 103.24770614 402.18173218 103.1673584 C402.18173218 89.9673584 402.18173218 76.7673584 402.18173218 63.1673584 C399.06525742 63.16371277 395.94878265 63.16006714 392.73786926 63.15631104 C364.15638961 63.12103118 335.57501865 63.06599949 306.99362191 62.98943745 C303.24732507 62.97942004 299.5010278 62.9695759 295.75473022 62.95983887 C294.63600394 62.95692681 294.63600394 62.95692681 293.49467713 62.95395592 C281.41993911 62.92293837 269.3452201 62.90595596 257.27044975 62.89416417 C244.87977576 62.88175133 232.48920148 62.85424696 220.09859043 62.81274533 C212.45344821 62.78761366 204.80847135 62.77424087 197.16328723 62.77592883 C191.30005381 62.77596211 185.4370133 62.75499403 179.57384682 62.72619057 C177.16925366 62.71766576 174.76462525 62.71595905 172.3600235 62.72155571 C169.07780604 62.72817794 165.79659655 62.7103161 162.51448059 62.68634033 C161.56213341 62.69410075 160.60978622 62.70186117 159.62858003 62.70985675 C153.63358329 62.63229196 150.10469806 61.64351451 145.18173218 58.1673584 C143.59474182 56.28167725 143.59474182 56.28167725 142.54574585 54.31677246 C132.95921293 37.84005464 125.24204579 34.03973973 108.18173218 21.1673584 C75.84173218 21.1673584 43.50173218 21.1673584 10.18173218 21.1673584 Z M341.90438843 218.3470459 C329.39973797 231.30021323 321.41558162 246.96807917 320.18173218 265.1673584 C320.13016968 265.80028809 320.07860718 266.43321777 320.02548218 267.08532715 C319.16814613 286.12533196 327.27138822 304.13159895 339.43173218 318.3548584 C352.52700628 332.33644547 370.42721408 340.96013238 389.60263062 341.64050293 C408.774227 341.84013144 427.33299818 335.73355234 441.22836304 322.2244873 C442.55882846 320.88457942 443.87091829 319.52649722 445.18173218 318.1673584 C445.84559937 317.53442871 446.50946655 316.90149902 447.19345093 316.24938965 C459.01040214 304.21999887 464.45597733 285.66686319 464.68173218 269.1673584 C464.39601245 248.30312139 455.59493103 230.28406365 440.72860718 215.77282715 C412.16566338 190.67335408 369.09477729 191.55718503 341.90438843 218.3470459 Z " fill="#000000" transform="translate(18.818267822265625,53.8326416015625)"/>
<path d="M0 0 C2.81460988 1.22374343 4.41422355 2.12452582 6.12060547 4.67480469 C7.31986808 7.8457589 7.22400846 10.56700231 7.1953125 13.953125 C7.1924826 14.61334656 7.18965271 15.27356812 7.18673706 15.95379639 C7.17558415 18.05271897 7.15048946 20.15120742 7.125 22.25 C7.11496384 23.67707715 7.1058391 25.10416102 7.09765625 26.53125 C7.07566111 30.02097328 7.04116536 33.51044423 7 37 C7.91289795 36.97381592 8.8257959 36.94763184 9.76635742 36.9206543 C13.16772344 36.83521458 16.56794258 36.77265001 19.9699707 36.7253418 C21.43955525 36.70026356 22.90901587 36.66619144 24.37817383 36.62280273 C26.49591681 36.56184501 28.61200576 36.53372684 30.73046875 36.51171875 C32.00301514 36.48553467 33.27556152 36.45935059 34.58666992 36.43237305 C38.883195 37.14687278 40.29513145 38.67114788 43 42 C44.19174743 44.38349487 44.11075627 45.66923121 43.9375 48.3125 C43.90527344 49.07175781 43.87304688 49.83101563 43.83984375 50.61328125 C42.85807686 53.40332577 41.62433953 55.21892664 39.2668457 57.02954102 C33.85324041 59.34715879 27.42162682 58.49066123 21.625 58.3125 C20.20707042 58.28739387 18.78909821 58.26458475 17.37109375 58.24414062 C13.91317012 58.18930824 10.45685812 58.10316611 7 58 C7.02618408 58.87736816 7.05236816 59.75473633 7.0793457 60.65869141 C7.16490909 63.93522757 7.22740867 67.21056558 7.2746582 70.48779297 C7.29969925 71.90204682 7.33374342 73.31617257 7.37719727 74.72998047 C7.77453068 87.99624186 7.77453068 87.99624186 4.7578125 91.890625 C0.8087482 94.91115577 -2.09655321 95.5093369 -7 95 C-10.83156809 93.25837814 -12.5167244 92.15628466 -14.14794922 88.25341797 C-15.03865742 84.85239292 -15.22873621 82.0173023 -15.1953125 78.5078125 C-15.18886719 77.30898438 -15.18242187 76.11015625 -15.17578125 74.875 C-15.15902344 73.6375 -15.14226562 72.4 -15.125 71.125 C-15.11597656 69.86429687 -15.10695313 68.60359375 -15.09765625 67.3046875 C-15.07415808 64.2029296 -15.04130334 61.10156348 -15 58 C-15.85231201 58.01571045 -16.70462402 58.0314209 -17.58276367 58.04760742 C-20.76031226 58.09888962 -23.93764913 58.13642482 -27.11547852 58.16479492 C-28.48794517 58.17983432 -29.86036414 58.20027133 -31.23266602 58.22631836 C-33.21088656 58.26291221 -35.18946514 58.27816698 -37.16796875 58.29296875 C-38.35672607 58.3086792 -39.5454834 58.32438965 -40.77026367 58.34057617 C-44.34380869 57.96374532 -46.15676068 57.15919441 -49 55 C-51.6790573 50.98141405 -51.69610694 47.72358279 -51 43 C-49.20606332 40.12970131 -48.01736724 38.50868362 -45 37 C-42.74879258 36.91426606 -40.49500697 36.89287812 -38.2421875 36.90234375 C-37.24761032 36.90446617 -37.24761032 36.90446617 -36.23294067 36.90663147 C-34.11358137 36.91223246 -31.99432741 36.924785 -29.875 36.9375 C-28.43880361 36.94251488 -27.00260556 36.94707781 -25.56640625 36.95117188 C-22.04423655 36.96220218 -18.52212855 36.97946741 -15 37 C-15.01571045 36.18321777 -15.0314209 35.36643555 -15.04760742 34.52490234 C-15.1101394 30.80833923 -15.14904944 27.09188704 -15.1875 23.375 C-15.21263672 22.08980469 -15.23777344 20.80460937 -15.26367188 19.48046875 C-15.27333984 18.23652344 -15.28300781 16.99257813 -15.29296875 15.7109375 C-15.3086792 14.56931152 -15.32438965 13.42768555 -15.34057617 12.25146484 C-14.87216589 7.77957372 -13.31665122 4.4629458 -10.3125 1.125 C-6.90482306 -0.53278878 -3.67536916 -0.54071037 0 0 Z " fill="#000000" transform="translate(415,276)"/>
</svg>
